<?xml version="1.0" encoding="iso-8859-1"?>
<!-- Uploaded to: SVG Repo, www.svgrepo.com, Generator: SVG Repo Mixer Tools -->
<svg fill="#000000" height="800px" width="800px" version="1.1" id="Layer_1" xmlns="http://www.w3.org/2000/svg" xmlns:xlink="http://www.w3.org/1999/xlink" 
	 viewBox="0 0 512 512" xml:space="preserve">
<g>
	<g>
		<g>
			<path d="M490.667,0H21.333C9.551,0,0,9.551,0,21.333v128v341.333C0,502.449,9.551,512,21.333,512h469.333
				c11.782,0,21.333-9.551,21.333-21.333V149.333v-128C512,9.551,502.449,0,490.667,0z M42.667,42.667h426.667V128H42.667V42.667z
				 M469.333,469.333H42.667V170.667h426.667V469.333z"/>
			<path d="M85.333,64C73.557,64,64,73.557,64,85.333s9.557,21.333,21.333,21.333s21.333-9.557,21.333-21.333S97.109,64,85.333,64z"
				/>
			<path d="M149.333,64C137.557,64,128,73.557,128,85.333s9.557,21.333,21.333,21.333s21.333-9.557,21.333-21.333
				S161.109,64,149.333,64z"/>
			<path d="M213.333,64C201.557,64,192,73.557,192,85.333s9.557,21.333,21.333,21.333s21.333-9.557,21.333-21.333
				S225.109,64,213.333,64z"/>
			<path d="M85.333,320h341.333c11.782,0,21.333-9.551,21.333-21.333v-85.333c0-11.782-9.551-21.333-21.333-21.333H85.333
				C73.551,192,64,201.551,64,213.333v85.333C64,310.449,73.551,320,85.333,320z M106.667,234.667h298.667v42.667H106.667V234.667z"
				/>
			<path d="M160,341.333H96c-11.782,0-21.333,9.551-21.333,21.333v64C74.667,438.449,84.218,448,96,448h64
				c11.782,0,21.333-9.551,21.333-21.333v-64C181.333,350.885,171.782,341.333,160,341.333z M138.667,405.333h-21.333V384h21.333
				V405.333z"/>
			<path d="M288,341.333h-64c-11.782,0-21.333,9.551-21.333,21.333v64c0,11.782,9.551,21.333,21.333,21.333h64
				c11.782,0,21.333-9.551,21.333-21.333v-64C309.333,350.885,299.782,341.333,288,341.333z M266.667,405.333h-21.333V384h21.333
				V405.333z"/>
			<path d="M416,341.333h-64c-11.782,0-21.333,9.551-21.333,21.333v64c0,11.782,9.551,21.333,21.333,21.333h64
				c11.782,0,21.333-9.551,21.333-21.333v-64C437.333,350.885,427.782,341.333,416,341.333z M394.667,405.333h-21.333V384h21.333
				V405.333z"/>
		</g>
	</g>
</g>
</svg>