<svg class="svg-icon" style="width: 1em;height: 1em;vertical-align: middle;fill: currentColor;overflow: hidden;" viewBox="0 0 1024 1024" version="1.1" xmlns="http://www.w3.org/2000/svg"><path d="M405.333333 482.133333c-106.666667 0-192-85.333333-192-192s85.333333-192 192-192 192 85.333333 192 192-85.333333 192-192 192z m0-298.666666c-59.733333 0-106.666667 46.933333-106.666666 106.666666s46.933333 106.666667 106.666666 106.666667 106.666667-46.933333 106.666667-106.666667-46.933333-106.666667-106.666667-106.666666zM682.666667 874.666667c-23.466667 0-42.666667-19.2-42.666667-42.666667v-74.666667c0-64-53.333333-117.333333-117.333333-117.333333h-234.666667c-64 0-117.333333 53.333333-117.333333 117.333333V832c0 23.466667-19.2 42.666667-42.666667 42.666667s-42.666667-19.2-42.666667-42.666667v-74.666667c0-110.933333 91.733333-202.666667 202.666667-202.666666h234.666667c110.933333 0 202.666667 91.733333 202.666666 202.666666V832c0 23.466667-19.2 42.666667-42.666666 42.666667zM661.333333 482.133333c-23.466667 0-42.666667-19.2-42.666666-42.666666s19.2-42.666667 42.666666-42.666667c59.733333 0 106.666667-46.933333 106.666667-106.666667s-46.933333-106.666667-106.666667-106.666666c-23.466667 0-42.666667-19.2-42.666666-42.666667s19.2-42.666667 42.666666-42.666667c106.666667 0 192 85.333333 192 192s-85.333333 192-192 192zM938.666667 874.666667c-23.466667 0-42.666667-19.2-42.666667-42.666667v-74.666667c0-64-53.333333-117.333333-117.333333-117.333333-23.466667 0-42.666667-19.2-42.666667-42.666667s19.2-42.666667 42.666667-42.666666c110.933333 0 202.666667 91.733333 202.666666 202.666666V832c0 23.466667-19.2 42.666667-42.666666 42.666667z"  /></svg>